<?xml version="1.0" standalone="no"?>
<!DOCTYPE svg PUBLIC "-//W3C//DTD SVG 20010904//EN"
 "http://www.w3.org/TR/2001/REC-SVG-20010904/DTD/svg10.dtd">
<svg version="1.0" xmlns="http://www.w3.org/2000/svg"
 width="300.000000pt" height="300.000000pt" viewBox="0 0 300.000000 300.000000"
 preserveAspectRatio="xMidYMid meet">
<metadata>
Created by potrace 1.10, written by Peter Selinger 2001-2011
</metadata>
<g transform="translate(0.000000,300.000000) scale(0.100000,-0.100000)"
fill="#000000" stroke="none">
<path d="M1372 2860 c-112 -16 -187 -47 -253 -107 -41 -37 -89 -118 -89 -150
0 -10 -11 -35 -25 -55 -36 -54 -48 -119 -35 -199 5 -37 14 -79 20 -94 13 -35
13 -38 -6 -31 -31 12 -84 -21 -104 -66 -54 -118 10 -303 120 -347 17 -7 -62
-10 -263 -10 -321 -1 -339 -4 -377 -66 -19 -30 -20 -49 -20 -276 0 -224 2
-247 20 -276 31 -52 64 -63 191 -63 l112 0 -41 -44 c-22 -24 -50 -62 -61 -85
-12 -23 -26 -41 -31 -41 -5 0 -39 12 -76 26 -54 22 -70 25 -90 16 -24 -11 -24
-13 -24 -142 l0 -130 -55 0 c-70 0 -80 -14 -96 -135 -10 -75 -9 -105 4 -180
19 -106 30 -119 100 -111 l47 5 0 -69 c0 -49 4 -73 16 -84 14 -14 131 -16
1140 -16 757 0 1132 3 1145 10 16 9 19 22 19 85 l0 74 48 -5 c69 -8 80 5 98
111 13 75 14 105 4 180 -15 120 -25 135 -95 135 l-55 0 0 129 c0 165 -1 166
-109 128 -42 -15 -80 -27 -83 -27 -4 0 -15 16 -24 35 -9 20 -37 58 -61 85
l-45 50 112 0 c126 0 159 11 190 63 18 29 20 52 20 276 0 359 21 341 -397 341
l-288 0 43 21 c74 37 121 126 122 232 0 107 -37 170 -104 171 l-33 1 5 110 c5
126 -6 195 -47 281 -59 123 -166 207 -301 233 -82 15 -217 21 -288 11z m329
-119 c108 -41 183 -137 209 -266 6 -33 14 -71 17 -84 3 -20 6 -22 14 -10 5 7
9 24 9 37 0 12 5 22 11 22 9 0 10 -30 6 -107 l-5 -107 28 -26 28 -26 -29 -11
c-16 -6 -37 -25 -46 -41 l-17 -30 -29 72 c-22 52 -32 95 -37 163 -6 85 -9 96
-40 135 -19 24 -26 36 -15 28 10 -8 38 -42 62 -75 37 -50 43 -55 43 -34 0 39
-47 125 -85 154 -75 57 -160 68 -264 36 -60 -19 -62 -19 -122 0 -118 37 -217
14 -291 -69 -44 -49 -60 -101 -56 -185 l3 -62 16 34 16 34 7 -36 c5 -28 0 -52
-25 -109 l-31 -74 -33 33 c-18 18 -41 33 -50 33 -14 0 -12 6 10 32 23 28 26
37 20 82 -5 49 -5 50 8 21 8 -17 21 -36 29 -43 14 -11 14 -7 7 30 -4 24 -8 73
-9 110 0 56 4 71 24 95 13 15 29 51 35 79 22 90 90 150 206 181 80 20 306 11
376 -16z m-249 -271 c47 -18 50 -18 102 1 98 34 128 35 185 4 64 -35 83 -73
86 -174 1 -60 7 -87 28 -128 25 -49 27 -60 27 -190 -1 -216 -22 -277 -140
-393 -172 -171 -300 -172 -477 -6 -110 102 -143 199 -143 417 0 109 2 120 28
165 22 40 28 65 32 141 6 105 20 132 86 171 45 26 102 24 186 -8z m612 -303
c11 -8 17 -19 15 -26 -3 -8 -13 -3 -28 13 -26 28 -17 35 13 13z m-1034 -160
l0 -110 -25 23 c-37 35 -59 101 -51 156 8 61 11 65 46 52 l30 -10 0 -111z
m1018 37 c-3 -46 -11 -72 -31 -103 -15 -22 -32 -41 -37 -41 -6 0 -10 43 -10
105 0 104 0 104 28 119 40 22 55 -1 50 -80z m-1031 -174 c8 0 25 11 37 25 l24
26 7 -63 c4 -35 14 -83 21 -108 19 -61 18 -63 -15 -29 -22 21 -39 29 -65 29
-40 0 -46 9 -16 28 30 18 25 38 -25 91 -51 55 -61 79 -13 32 17 -17 38 -31 45
-31z m1037 38 c-10 -12 -34 -37 -51 -55 -39 -40 -40 -49 -11 -80 l21 -23 -27
0 c-36 0 -66 -16 -94 -48 l-22 -27 20 56 c10 31 22 86 26 123 l7 67 27 -26
c32 -31 54 -28 90 10 29 31 40 33 14 3z m-1460 -156 c2 -4 -8 -21 -23 -38
l-28 -31 -21 34 c-12 18 -22 35 -22 38 0 8 88 6 94 -3z m156 1 c-1 -17 -60
-77 -60 -62 0 9 -9 24 -20 34 -31 28 -24 35 30 35 28 0 50 -3 50 -7z m1600 1
c0 -3 -11 -19 -24 -34 l-24 -29 -26 28 c-14 15 -23 30 -19 34 8 9 93 9 93 1z
m150 -9 c0 -8 -4 -15 -8 -15 -5 0 -15 -11 -22 -25 l-13 -25 -24 35 c-12 18
-23 36 -23 39 0 4 20 6 45 6 33 0 45 -4 45 -15z m-2000 -285 l0 -250 -23 0
c-45 0 -47 11 -47 246 0 237 3 254 51 254 18 0 19 -10 19 -250z m153 -3 l2
-247 -32 0 -33 0 0 251 0 250 30 -3 31 -3 2 -248z m434 205 c12 -26 38 -66 58
-89 33 -39 35 -45 35 -113 0 -84 -15 -119 -64 -145 -32 -17 -37 -18 -53 -4
-31 27 -47 28 -134 8 -86 -20 -123 -43 -140 -86 -5 -13 -16 -23 -26 -23 -17 0
-18 16 -15 250 l3 250 157 0 157 -1 22 -47z m1173 -202 c0 -238 -1 -250 -19
-250 -11 0 -23 12 -31 31 -18 42 -46 58 -141 79 -86 19 -119 15 -137 -15 -8
-16 -12 -16 -38 -2 -57 30 -69 52 -73 143 l-3 84 36 40 c19 22 47 62 61 90
l25 50 160 0 160 0 0 -250z m150 0 l0 -250 -30 0 -30 0 0 250 0 250 30 0 30 0
0 -250z m142 233 c16 -15 18 -36 18 -238 0 -234 -2 -245 -47 -245 l-23 0 0
250 c0 227 2 250 17 250 9 0 25 -7 35 -17z m-1258 -191 c27 -23 44 -42 38 -42
-6 0 -14 5 -17 10 -11 18 -41 11 -66 -16 l-24 -26 -6 61 c-5 48 -14 72 -39
109 l-34 47 50 -51 c27 -27 71 -69 98 -92z m515 76 c-16 -21 -24 -51 -27 -91
l-5 -58 -28 27 c-20 19 -34 25 -51 21 -15 -4 2 17 52 63 41 38 76 69 78 70 2
0 -7 -14 -19 -32z m-439 -184 c46 -23 68 -27 130 -27 80 0 129 16 187 59 17
13 34 24 37 24 3 0 6 -18 6 -40 0 -48 22 -105 53 -138 13 -14 17 -26 12 -30
-116 -82 -190 -105 -316 -100 -87 3 -103 7 -170 41 -117 59 -116 57 -78 111
26 36 34 58 37 106 l4 61 22 -19 c11 -11 46 -32 76 -48z m481 -110 c37 -27 76
-31 105 -9 21 16 64 20 64 7 0 -5 -9 -17 -19 -26 -11 -10 -22 -29 -26 -43 l-6
-26 -28 27 c-34 33 -58 33 -101 1 -43 -32 -45 -31 -23 5 17 29 16 31 -5 77
-12 27 -16 40 -8 30 8 -10 29 -30 47 -43z m-665 14 c-20 -29 -20 -52 0 -84 16
-24 15 -24 -35 7 l-52 32 -34 -33 -34 -33 -6 26 c-4 14 -15 33 -26 43 -10 9
-19 21 -19 26 0 13 38 9 70 -7 37 -19 67 -12 111 25 39 32 48 32 25 -2z m1050
-128 c6 0 23 13 38 29 l28 29 31 -34 30 -35 -22 -15 c-27 -20 -27 -49 2 -88
13 -17 27 -38 31 -46 4 -8 -1 -5 -10 8 -22 30 -108 92 -127 92 -9 0 -28 -12
-42 -27 l-25 -28 0 76 c0 63 -3 79 -20 94 -11 10 -20 23 -20 29 0 5 22 -11 48
-37 26 -26 52 -47 58 -47z m-1384 57 c-18 -20 -22 -35 -22 -96 l0 -74 -21 27
c-11 14 -31 26 -43 26 -27 0 -79 -37 -124 -87 l-34 -38 36 54 c42 62 45 84 14
105 l-22 16 29 32 c17 18 31 34 32 36 1 2 15 -11 31 -29 29 -32 31 -33 57 -19
15 8 36 27 47 42 10 15 24 28 30 28 7 0 2 -10 -10 -23z m-269 -44 l20 -23 -58
0 -59 0 27 28 c15 15 27 35 27 43 1 9 4 7 12 -6 6 -11 20 -30 31 -42z m404
-10 c-4 -38 -7 -127 -7 -200 l0 -131 -47 -16 c-25 -9 -47 -15 -48 -13 -2 1 -6
88 -10 193 -5 155 -4 193 7 200 12 8 82 31 102 33 5 1 6 -29 3 -66z m1102 47
l44 -12 -7 -196 c-4 -108 -8 -198 -10 -199 -1 -2 -24 4 -49 13 l-47 16 0 161
c0 89 -3 179 -7 201 -5 34 -4 38 13 33 10 -3 39 -11 63 -17z m404 -37 l20 -23
-57 0 -58 0 26 31 c14 17 26 36 26 42 0 7 6 3 12 -8 6 -11 20 -30 31 -42z
m-1335 -14 c116 -102 289 -147 442 -115 89 19 200 72 253 120 20 20 43 33 51
30 15 -6 26 -113 26 -253 0 -62 -3 -82 -12 -78 -7 2 -104 32 -215 66 l-202 62
-198 -61 c-109 -33 -206 -63 -217 -66 -18 -6 -18 0 -11 157 4 90 9 167 12 172
9 14 26 6 71 -34z m-371 -316 c-2 -1 -40 12 -85 29 l-81 31 17 31 c9 17 44 58
77 91 l60 59 7 -119 c4 -66 6 -120 5 -122z m1507 174 c30 -29 61 -67 69 -84
l16 -30 -82 -31 c-44 -17 -82 -30 -82 -29 -7 11 10 227 17 227 5 0 33 -24 62
-53z m-1699 -85 c-4 -21 0 -36 16 -56 l22 -28 -24 7 c-13 4 -40 14 -59 22
l-34 14 32 19 c18 11 35 27 38 35 10 25 16 17 9 -13z m1858 -22 l31 -19 -48
-21 c-63 -27 -72 -25 -46 7 15 19 19 35 15 57 -5 26 -4 28 5 13 7 -10 26 -27
43 -37z m-2019 17 c16 -11 15 -14 -13 -35 -30 -22 -31 -26 -31 -98 0 -61 4
-82 21 -105 l20 -29 -45 0 c-25 0 -46 3 -46 6 0 3 9 17 20 31 17 22 20 41 20
128 0 56 3 105 7 108 10 11 27 8 47 -6z m1114 4 c10 -6 6 -15 -17 -38 l-30
-31 -36 33 c-29 28 -32 34 -17 38 30 8 86 7 100 -2z m1070 -35 l3 -39 -34 29
c-31 26 -33 30 -18 42 27 22 46 10 49 -32z m-1730 -186 c13 0 373 108 547 163
20 7 20 2 20 -323 l0 -330 -263 0 -263 0 2 119 c0 66 -2 124 -5 129 -10 17
-44 20 -65 5 -19 -13 -21 -24 -21 -134 l0 -119 -205 0 -205 0 0 33 c0 29 6 35
52 57 95 46 142 165 104 265 -20 51 -84 113 -126 122 l-30 6 0 87 0 87 221
-83 c122 -46 228 -84 237 -84z m184 119 c21 -16 20 -17 -31 -34 -29 -9 -55
-15 -58 -12 -3 3 4 18 16 33 11 15 21 36 21 48 1 21 1 21 16 1 8 -11 24 -27
36 -36z m622 7 c77 -25 194 -61 259 -81 l118 -36 -2 -105 c-2 -112 6 -134 47
-134 35 0 44 28 44 142 l0 103 178 64 c97 36 189 71 205 78 l27 14 0 -89 0
-89 -30 -6 c-42 -9 -106 -71 -126 -122 -38 -100 9 -219 104 -265 46 -22 52
-28 52 -57 l0 -33 -510 0 -509 0 -3 330 c-2 182 -1 330 1 330 2 0 67 -20 145
-44z m312 -27 c24 -27 12 -33 -33 -19 -54 18 -57 23 -26 57 l28 31 7 -25 c4
-14 15 -34 24 -44z m-1166 29 c0 -12 12 -35 27 -50 25 -26 25 -28 6 -28 -17 0
-91 25 -101 35 -4 4 51 62 61 64 4 0 7 -9 7 -21z m1384 -28 c19 -7 16 -10 -25
-28 -25 -11 -55 -32 -66 -46 l-20 -25 -22 23 c-27 28 -27 36 1 36 26 0 68 37
68 60 0 27 12 31 28 9 8 -11 24 -24 36 -29z m419 -112 l28 -38 -51 0 -51 0 20
26 c12 15 21 34 21 42 0 8 1 13 3 11 2 -2 15 -21 30 -41z m-2353 -36 c0 -5
-11 -19 -25 -32 -24 -22 -25 -22 -25 -4 0 11 5 25 12 32 14 14 38 16 38 4z
m2458 -4 c7 -7 12 -21 12 -32 0 -18 -1 -18 -25 4 -14 13 -25 27 -25 32 0 12
24 10 38 -4z m-249 -56 c-19 -21 -36 -34 -38 -29 -4 10 48 67 62 67 5 0 -6
-17 -24 -38z m-2028 -18 c57 -57 47 -154 -21 -189 -41 -21 -156 -21 -164 1 -8
21 -8 188 0 209 6 14 19 16 80 13 67 -3 77 -6 105 -34z m2243 20 c3 -9 6 -55
6 -104 0 -49 -3 -95 -6 -104 -5 -12 -21 -16 -74 -16 -59 0 -73 4 -99 25 -63
54 -60 146 8 192 43 29 155 34 165 7z m-206 -221 c8 -7 13 -16 9 -19 -8 -9
-31 15 -51 53 -23 46 -20 54 5 13 11 -19 28 -41 37 -47z m-2233 -51 c-19 -4
-35 13 -35 37 0 10 8 7 26 -10 22 -20 23 -25 9 -27z m2480 19 c-4 -13 -15 -21
-27 -21 -21 0 -21 0 2 25 26 28 35 27 25 -4z m-2325 -17 c0 -3 -9 -17 -20 -31
-28 -35 -25 -72 8 -106 l27 -29 -30 4 c-28 3 -30 6 -33 53 -2 33 -10 57 -24
72 -11 12 -17 26 -13 32 6 11 85 16 85 5z m2225 0 c14 -6 12 -11 -11 -35 l-27
-28 -24 31 c-12 18 -23 33 -23 35 0 6 68 3 85 -3z m-1736 -136 l24 -28 -51 0
-52 0 22 34 c13 19 25 32 28 28 3 -4 16 -19 29 -34z m619 -10 c14 -17 12 -18
-37 -18 l-52 0 28 35 c24 30 29 32 37 17 5 -9 16 -25 24 -34z m1078 -4 c-5
-13 -46 -21 -46 -8 0 3 10 18 23 33 20 25 22 26 25 9 2 -11 1 -26 -2 -34z"/>
<path d="M851 626 c-20 -24 -5 -65 26 -72 35 -9 66 26 54 59 -10 27 -62 35
-80 13z"/>
<path d="M2072 406 c-15 -33 10 -68 46 -64 33 4 53 48 32 72 -20 25 -65 20
-78 -8z"/>
<path d="M2443 2650 c-63 -13 -116 -45 -161 -95 -118 -134 -91 -323 76 -528
61 -75 94 -97 146 -97 44 0 85 35 155 129 80 108 114 190 119 288 4 78 2 88
-28 149 -57 115 -183 179 -307 154z m130 -104 c18 -7 46 -29 64 -49 64 -73 68
-157 14 -272 -34 -74 -134 -205 -155 -205 -22 0 -114 118 -152 195 -74 149
-48 266 71 328 37 20 115 21 158 3z"/>
<path d="M2435 2506 c-75 -32 -110 -115 -81 -190 20 -51 38 -69 90 -91 51 -21
103 -12 149 26 133 110 0 324 -158 255z m100 -101 c29 -28 31 -42 9 -73 -17
-25 -74 -31 -92 -9 -24 30 -23 56 2 82 31 31 50 32 81 0z"/>
</g>
</svg>
