<?xml version="1.0" standalone="no"?>
<!DOCTYPE svg PUBLIC "-//W3C//DTD SVG 20010904//EN"
 "http://www.w3.org/TR/2001/REC-SVG-20010904/DTD/svg10.dtd">
<svg version="1.0" xmlns="http://www.w3.org/2000/svg"
 width="300.000000pt" height="300.000000pt" viewBox="0 0 300.000000 300.000000"
 preserveAspectRatio="xMidYMid meet">
<metadata>
Created by potrace 1.10, written by Peter Selinger 2001-2011
</metadata>
<g transform="translate(0.000000,300.000000) scale(0.100000,-0.100000)"
fill="#000000" stroke="none">
<path d="M330 2911 c0 -27 8 -52 22 -71 14 -20 21 -44 21 -75 0 -109 -128
-179 -213 -117 -19 14 -44 22 -71 22 l-41 0 4 -67 c6 -118 75 -220 183 -274
42 -20 65 -24 140 -24 106 0 163 22 230 90 68 67 90 124 90 230 0 75 -4 98
-24 140 -54 108 -156 177 -273 183 l-68 4 0 -41z m119 -12 l31 -11 -26 -20
c-14 -12 -29 -29 -33 -40 -6 -16 -10 -13 -30 21 -32 59 -14 75 58 50z m56 -79
c142 -98 135 -310 -14 -398 -38 -22 -58 -27 -116 -27 -58 0 -78 5 -117 28 -41
24 -117 111 -106 122 2 3 21 -1 41 -7 28 -9 50 -8 94 1 47 11 65 22 108 65 70
69 90 149 60 229 -10 24 0 22 50 -13z m-360 -210 l33 -20 -28 -29 c-20 -20
-27 -35 -24 -52 2 -15 -3 -9 -16 16 -19 40 -26 86 -13 98 9 10 12 9 48 -13z"/>
<path d="M1909 2923 c-38 -20 -63 -42 -84 -74 -29 -44 -31 -45 -72 -41 -140
15 -263 -106 -250 -247 4 -46 0 -66 -22 -113 l-26 -57 -391 0 -391 -1 -312
-695 c-287 -640 -311 -699 -311 -750 l0 -55 811 0 c701 0 810 -2 806 -14 -20
-52 -28 -108 -23 -158 5 -56 38 -142 58 -154 6 -4 -87 -104 -206 -223 l-216
-217 33 -32 33 -32 209 210 c115 116 213 210 218 210 4 0 22 -10 40 -22 18
-13 34 -24 36 -25 2 -2 -3 -11 -11 -20 -21 -26 -191 -294 -187 -296 2 -1 18
-12 36 -25 18 -12 34 -22 37 -22 2 0 50 73 107 163 56 89 102 163 103 164 1 1
30 -3 64 -10 l62 -12 0 -162 0 -163 51 0 50 0 -7 163 -7 164 60 6 c33 4 67 9
75 12 12 5 47 -37 133 -157 65 -90 119 -165 121 -167 2 -2 22 9 44 24 40 28
40 28 22 49 -27 29 -214 288 -210 290 2 0 17 11 34 23 l31 21 209 -209 208
-209 33 32 33 32 -211 212 -211 211 21 33 c30 50 46 157 33 222 -6 29 -14 61
-17 71 -7 16 7 17 194 17 l201 0 0 55 c0 50 -17 92 -171 438 -94 210 -174 388
-176 395 -3 7 3 12 16 12 59 0 150 75 177 146 16 42 16 117 -1 169 -5 17 0 23
29 33 39 15 92 70 112 118 27 65 12 177 -31 224 -11 12 -12 25 -5 55 24 103
-42 221 -145 261 -33 12 -62 15 -105 11 -59 -5 -60 -5 -81 29 -23 38 -86 85
-138 102 -71 25 -197 7 -241 -33 -15 -14 -20 -13 -41 3 -69 51 -156 57 -240
15z m294 -75 c-21 -23 -46 -23 -66 0 -16 18 -15 18 32 18 47 -1 49 -2 34 -18z
m-126 -5 c19 -9 46 -33 60 -54 l25 -38 42 43 c71 73 165 86 245 33 134 -89 90
-311 -67 -336 -36 -6 -37 -8 -40 -54 -4 -55 2 -57 85 -32 60 18 135 81 165
139 12 23 24 70 27 106 l6 65 34 3 c45 5 85 -13 121 -55 24 -27 30 -43 30 -79
0 -25 -7 -59 -16 -75 -15 -30 -15 -31 19 -64 20 -19 38 -48 42 -65 16 -74 -26
-150 -95 -171 -34 -10 -42 -9 -69 10 l-31 22 -10 -26 c-23 -60 -22 -69 8 -86
32 -18 62 -73 62 -114 0 -37 -36 -98 -70 -118 -15 -9 -42 -18 -59 -19 l-32 -3
-116 258 -116 257 -389 0 -389 0 21 30 c24 33 68 60 100 60 17 0 20 6 20 51 0
56 2 56 -77 33 -28 -8 -30 9 -7 66 30 75 116 109 187 75 40 -18 77 -69 77
-104 0 -19 6 -21 51 -21 l51 0 -7 37 c-8 47 -26 80 -59 116 -32 34 -32 35 -3
69 46 56 110 72 174 41z m522 -78 c27 -8 26 -16 -3 -44 l-24 -23 -12 39 c-7
21 -22 52 -34 68 l-20 30 36 -32 c20 -17 46 -34 57 -38z m-747 15 c-2 -18 2
-40 12 -55 23 -34 20 -42 -6 -18 -13 11 -33 26 -45 32 -13 6 -23 15 -23 19 0
5 59 52 66 52 0 0 -1 -14 -4 -30z m-268 -236 l33 -27 -48 -47 c-27 -25 -49
-51 -49 -57 0 -6 12 -25 26 -42 l26 -31 -56 0 c-31 0 -56 4 -56 8 0 5 11 19
24 31 37 35 69 117 61 157 -7 41 -3 42 39 8z m1282 -70 l16 -39 -21 19 c-11
11 -21 30 -21 44 0 31 5 27 26 -24z m-2086 -133 c0 -6 -4 -13 -10 -16 -5 -3
-14 -14 -19 -23 -9 -18 -8 -24 43 -157 l27 -70 -26 28 c-31 33 -54 32 -73 -3
-18 -33 -9 -200 18 -335 25 -125 25 -123 -6 -91 -33 32 -37 32 -65 -1 l-22
-28 6 40 c3 22 13 83 22 135 10 52 18 136 19 187 1 84 -1 94 -22 115 l-23 23
-35 -37 c-18 -21 -34 -35 -34 -33 0 16 112 260 122 267 18 11 78 10 78 -1z
m1522 -8 c10 -9 18 -23 18 -31 0 -12 -6 -10 -25 8 -38 35 -31 58 7 23z m260
-693 l295 -660 -171 0 -172 0 -75 116 c-124 195 -134 214 -139 275 l-5 56 -70
-28 c-93 -38 -170 -93 -224 -161 l-45 -55 -50 23 c-28 13 -56 24 -62 24 -7 0
-13 -24 -16 -55 -4 -45 -13 -68 -52 -125 l-48 -70 -192 0 -191 0 -286 660
-286 660 746 0 747 0 296 -660z m208 503 c-14 -18 -18 -33 -13 -52 5 -21 -1
-17 -30 22 -21 26 -37 49 -37 50 0 2 22 4 50 4 l50 1 -20 -25z m-2120 -203
c-34 -351 -150 -619 -393 -903 -41 -48 -54 -57 -82 -57 l-33 0 239 530 c131
292 246 552 256 578 l18 47 3 -40 c2 -22 -1 -92 -8 -155z m373 -453 c120 -274
217 -501 217 -503 0 -2 -10 -4 -23 -4 -16 0 -45 28 -108 108 -102 126 -140
185 -201 307 -93 185 -146 393 -154 605 l-5 125 29 -70 c16 -38 126 -294 245
-568z m1572 347 c20 7 19 0 -5 -24 -11 -11 -20 -32 -20 -47 l0 -28 -18 30
c-10 17 -26 49 -35 73 l-17 42 40 -26 c22 -15 46 -24 55 -20z m-1825 -358 c62
-156 157 -319 251 -428 27 -31 49 -59 49 -62 0 -3 -167 -6 -370 -6 l-371 0 52
63 c132 158 279 438 304 582 12 64 17 63 36 -7 10 -36 32 -100 49 -142z m1497
-166 l13 -44 -33 32 c-18 18 -39 32 -47 32 -9 1 -4 7 10 15 35 20 43 15 57
-35z m-33 -57 c10 -20 53 -92 97 -160 113 -174 143 -241 147 -331 6 -114 -34
-192 -128 -246 -33 -19 -33 -19 -25 0 19 42 17 130 -3 170 -24 46 -200 269
-213 269 -5 0 -56 -60 -114 -133 -111 -141 -121 -164 -113 -253 3 -27 1 -49
-4 -49 -5 0 -33 24 -63 54 -112 112 -108 225 14 390 22 30 50 73 62 95 18 35
24 39 40 31 25 -14 39 -42 39 -79 0 -30 1 -31 45 -31 l45 0 0 48 c0 27 -7 57
-16 70 -14 20 -13 25 16 67 26 38 130 125 150 125 3 0 14 -17 24 -37z m-224
-93 c-7 -13 -10 -39 -6 -60 l6 -38 -34 34 c-33 33 -69 44 -81 24 -3 -5 -14
-14 -24 -20 -17 -9 -18 -7 -8 31 8 35 13 40 31 34 52 -17 72 -16 96 3 30 24
36 22 20 -8z m-1656 -82 c-4 -7 -13 -20 -20 -28 -25 -29 -27 -65 -5 -84 12
-11 21 -23 21 -28 0 -4 -29 -8 -65 -8 -36 0 -65 3 -65 6 0 6 131 151 138 153
2 1 0 -5 -4 -11z m834 -128 c7 0 10 -4 7 -10 -7 -12 -135 -14 -135 -2 0 5 9
17 20 27 26 23 25 32 -6 80 -20 31 -12 25 38 -27 35 -38 69 -68 76 -68z
m-1073 67 c-4 -15 1 -32 14 -49 27 -34 26 -40 -6 -36 -33 4 -41 34 -23 79 15
35 23 38 15 6z m1208 -56 c29 -23 19 -31 -38 -31 -59 0 -66 7 -35 35 11 10 20
30 20 44 l0 26 18 -30 c11 -16 26 -36 35 -44z m1585 4 c-2 -24 -8 -31 -30 -33
-34 -4 -34 0 -7 38 13 17 19 36 15 47 -5 16 -4 15 9 -2 9 -11 15 -33 13 -50z
m-379 -21 l30 -6 -22 -34 c-12 -19 -25 -34 -28 -34 -6 0 -59 111 -59 123 0 3
11 -5 25 -19 13 -13 38 -27 54 -30z m-778 -25 c-23 -35 -41 -59 -41 -52 0 6
-12 25 -26 42 l-26 31 30 0 c16 0 44 11 63 23 19 13 35 23 37 22 2 -2 -15 -31
-37 -66z m391 -61 c41 -55 41 -59 2 -33 -39 27 -38 27 -93 -20 -28 -23 -21 -7
22 48 16 20 32 37 37 37 4 0 19 -15 32 -32z m38 -130 c61 -78 65 -86 65 -135
0 -46 -4 -57 -33 -85 -30 -31 -37 -33 -103 -33 -69 0 -71 1 -105 37 -28 31
-34 46 -34 82 0 38 8 54 66 130 36 47 69 86 73 86 3 0 35 -37 71 -82z m-367
-208 c37 -29 66 -34 88 -14 10 9 19 23 19 31 0 23 15 14 34 -22 10 -19 35 -46
55 -60 31 -21 49 -25 105 -25 l67 0 53 53 53 53 16 -28 c28 -49 88 -31 156 49
28 33 39 41 35 25 -9 -32 2 -66 33 -103 l28 -33 -44 32 c-55 40 -71 40 -116 1
-37 -32 -43 -56 -24 -92 10 -20 9 -19 -17 4 -48 44 -60 47 -134 34 -52 -9 -74
-18 -89 -36 l-19 -24 -30 28 c-24 23 -42 30 -91 34 -60 6 -63 5 -97 -28 l-34
-33 11 33 c10 28 9 36 -8 59 -11 15 -34 35 -52 46 -27 15 -36 16 -61 6 -17 -7
-30 -16 -30 -20 0 -4 -7 -10 -15 -14 -10 -3 -6 8 11 35 22 35 24 45 15 71 -16
44 -15 44 24 -2 20 -24 46 -50 58 -60z m-133 -63 c0 -1 -73 -74 -162 -162
l-163 -160 160 163 c148 150 165 167 165 159z m1030 -162 c80 -80 142 -145
140 -145 -3 0 -70 65 -150 145 -80 80 -142 145 -140 145 3 0 70 -65 150 -145z"/>
<path d="M1550 2155 l0 -45 45 0 45 0 0 45 0 45 -45 0 -45 0 0 -45z"/>
<path d="M1730 2155 l0 -45 50 0 50 0 0 45 0 45 -50 0 -50 0 0 -45z"/>
<path d="M1920 2155 l0 -45 113 0 113 0 74 -167 c40 -93 76 -171 79 -174 3 -4
25 2 47 12 l42 19 -91 200 -91 200 -143 0 -143 0 0 -45z m264 -17 c24 -34 19
-44 -9 -18 -14 13 -25 27 -25 32 0 16 19 8 34 -14z"/>
<path d="M1273 1499 l-42 -18 16 -40 c18 -46 20 -47 68 -27 40 17 40 18 17 67
l-17 36 -42 -18z"/>
<path d="M1338 1324 l-36 -15 18 -42 c11 -23 22 -41 25 -40 3 0 23 8 45 17
l39 15 -17 41 c-19 44 -22 45 -74 24z"/>
<path d="M1420 1154 c-19 -8 -36 -16 -38 -18 -3 -3 24 -63 33 -74 2 -2 41 14
83 34 5 2 -29 74 -36 74 -4 -1 -23 -8 -42 -16z"/>
</g>
</svg>
