<?xml version="1.0" standalone="no"?>
<!DOCTYPE svg PUBLIC "-//W3C//DTD SVG 20010904//EN"
 "http://www.w3.org/TR/2001/REC-SVG-20010904/DTD/svg10.dtd">
<svg version="1.0" xmlns="http://www.w3.org/2000/svg"
 width="300.000000pt" height="300.000000pt" viewBox="0 0 300.000000 300.000000"
 preserveAspectRatio="xMidYMid meet">
<metadata>
Created by potrace 1.10, written by Peter Selinger 2001-2011
</metadata>
<g transform="translate(0.000000,300.000000) scale(0.100000,-0.100000)"
fill="#000000" stroke="none">
<path d="M1317 2756 c-74 -27 -96 -65 -106 -179 -6 -66 -4 -81 9 -88 8 -5 96
-57 195 -115 99 -58 184 -106 189 -107 7 -2 35 81 35 108 1 6 -26 26 -59 44
l-60 35 0 65 0 66 105 -3 c58 -2 105 1 105 6 0 18 -111 119 -162 147 -43 24
-67 29 -133 32 -52 2 -93 -2 -118 -11z m189 -41 c52 -15 128 -70 119 -86 -4
-5 -27 -9 -52 -9 -69 0 -93 -26 -93 -101 0 -51 4 -63 31 -93 16 -19 39 -38 49
-41 21 -7 34 -35 22 -47 -5 -5 -67 24 -143 68 -193 111 -189 107 -189 159 0
56 25 119 54 138 43 29 130 34 202 12z"/>
<path d="M1550 2516 c0 -38 4 -48 31 -66 16 -12 33 -19 36 -16 4 4 9 33 11 66
l4 60 -41 0 -41 0 0 -44z"/>
<path d="M1250 2435 c0 -18 46 -67 83 -89 37 -21 127 -45 127 -33 0 2 -37 26
-82 52 -46 26 -93 55 -105 63 -13 8 -23 11 -23 7z"/>
<path d="M1155 2311 c-110 -51 -223 -250 -269 -474 -20 -98 -9 -153 39 -195
17 -16 117 -73 221 -126 104 -54 193 -101 197 -106 5 -4 26 -122 47 -261 43
-277 50 -297 113 -313 70 -18 130 29 129 102 -2 71 -83 577 -97 598 -13 21
-94 67 -282 164 -73 36 -82 44 -73 60 14 26 13 30 -11 30 -31 0 -57 18 -74 51
-14 26 -15 50 -6 180 6 83 16 159 21 169 31 57 105 67 152 19 31 -30 31 -31
24 -110 -8 -94 0 -96 44 -9 35 68 41 150 14 188 -36 52 -117 66 -189 33z m145
-51 c11 -11 20 -28 20 -37 0 -13 -7 -11 -32 13 -18 16 -37 32 -42 36 -6 5 0 8
12 8 12 0 31 -9 42 -20z m-248 -259 c-2 -71 -2 -141 2 -156 4 -15 37 -57 74
-94 55 -55 92 -80 207 -140 77 -40 148 -81 159 -91 27 -27 107 -546 92 -605
-12 -48 -90 -53 -115 -8 -5 11 -26 126 -46 257 -20 132 -43 249 -51 261 -8 12
-96 64 -195 116 -100 52 -199 110 -220 130 -37 34 -39 39 -39 96 0 110 91 363
130 363 4 0 5 -58 2 -129z"/>
<path d="M1146 2192 c-12 -14 -19 -51 -26 -143 -5 -68 -10 -139 -10 -156 0
-39 30 -73 65 -73 13 0 135 41 271 91 l247 91 39 -18 c38 -17 40 -17 66 3 32
24 41 76 18 102 -9 10 -38 28 -64 40 l-48 22 -227 -84 -228 -84 7 88 c6 73 4
93 -10 114 -20 31 -74 35 -100 7z m63 -36 c7 -9 11 -44 9 -91 -2 -71 0 -79 21
-97 28 -22 11 -26 257 63 105 38 199 69 209 69 19 0 85 -37 85 -48 0 -4 -4
-13 -9 -21 -8 -13 -15 -13 -49 -2 -44 15 -52 13 -369 -105 -94 -35 -178 -64
-186 -64 -25 0 -30 35 -22 154 10 145 23 180 54 142z"/>
<path d="M1860 2031 c0 -10 -9 -29 -19 -42 -18 -22 -18 -26 -4 -41 15 -16 10
-27 -63 -138 l-79 -119 -97 -43 -98 -42 29 -23 c15 -12 33 -35 39 -50 19 -47
94 -564 89 -616 l-4 -47 33 5 c19 3 49 7 67 10 19 3 45 18 60 33 14 15 63 106
108 202 45 96 86 181 92 188 13 17 -1 16 -116 -12 -60 -14 -100 -20 -104 -14
-9 16 11 24 115 43 107 20 115 24 103 44 -7 10 -39 6 -170 -23 -89 -20 -168
-37 -174 -39 -7 -1 -12 5 -12 12 0 11 47 25 179 53 163 35 186 43 261 87 l82
48 69 -91 c71 -95 84 -131 49 -131 -11 0 -21 -7 -21 -15 -1 -8 -2 -20 -3 -26
0 -7 -10 -14 -21 -17 -17 -4 -19 -11 -14 -31 4 -19 2 -26 -9 -26 -18 0 -30
-27 -17 -35 16 -10 12 -35 -5 -35 -8 0 -15 -7 -15 -15 0 -8 5 -15 10 -15 6 0
10 -9 10 -20 0 -11 -4 -20 -10 -20 -5 0 -10 -7 -10 -15 0 -8 5 -15 11 -15 7 0
9 -12 5 -34 -5 -25 -3 -35 9 -39 10 -5 13 -15 9 -36 -5 -23 -2 -30 12 -33 12
-2 19 -12 19 -28 0 -14 5 -25 12 -25 16 0 28 -14 28 -33 0 -10 9 -18 22 -20
13 -2 23 -11 25 -25 2 -16 10 -22 28 -22 15 0 25 -6 25 -15 0 -10 10 -15 27
-15 15 0 34 -9 42 -20 13 -16 17 -18 25 -6 10 16 46 7 36 -9 -3 -5 3 -10 14
-10 12 0 21 5 21 10 0 6 7 10 15 10 8 0 15 -4 15 -10 0 -5 9 -10 20 -10 11 0
20 5 20 10 0 6 7 10 15 10 8 0 15 -5 15 -11 0 -6 8 -9 18 -7 9 2 17 10 17 18
0 8 8 16 18 18 9 2 17 -1 17 -7 0 -21 21 -11 30 14 9 25 30 35 30 14 0 -16 25
-5 25 12 1 26 16 41 30 29 9 -7 16 -6 24 4 9 10 9 16 1 21 -8 5 -8 11 1 21 9
11 15 11 25 3 11 -9 15 -7 21 7 4 11 2 19 -6 22 -9 3 -9 7 -1 17 6 8 17 12 25
9 18 -7 29 14 15 31 -14 17 -3 38 16 31 9 -3 14 2 14 14 0 11 -4 20 -10 20 -5
0 -10 7 -10 15 0 8 6 15 14 15 19 0 28 27 10 34 -19 7 -18 36 1 36 8 0 15 7
15 15 0 8 -7 15 -15 15 -8 0 -15 9 -15 20 0 11 5 20 10 20 19 0 10 28 -10 33
-20 5 -28 27 -10 27 6 0 10 9 10 21 0 15 -5 19 -19 14 -24 -7 -36 21 -14 33
13 8 13 11 2 18 -8 5 -21 9 -29 9 -9 0 -15 10 -15 25 0 20 -5 25 -25 25 -19 0
-25 5 -25 22 0 28 -14 41 -24 24 -11 -17 -34 -4 -27 14 6 17 -20 40 -29 25
-11 -18 -35 -11 -35 10 0 11 -7 20 -15 20 -8 0 -15 -4 -15 -10 0 -5 -9 -10
-21 -10 -14 0 -19 5 -16 14 3 8 -2 16 -14 19 -12 3 -19 0 -19 -9 0 -19 -26
-18 -34 1 -3 8 -12 15 -21 15 -8 0 -15 -7 -15 -15 0 -8 -7 -15 -15 -15 -8 0
-15 5 -15 11 0 13 -31 8 -31 -6 -1 -17 -31 -29 -39 -15 -9 15 -30 5 -30 -15 0
-24 -24 -22 -51 4 -33 33 -152 182 -147 185 8 6 241 26 299 26 36 0 117 -13
184 -29 66 -16 123 -26 126 -23 4 4 9 19 13 33 6 26 4 27 -87 48 -204 48 -244
49 -532 15 -51 -6 -51 -6 -89 40 -33 41 -39 55 -42 107 -4 60 -31 140 -53 153
-6 4 -24 -6 -40 -21 l-29 -29 -58 78 c-32 43 -59 78 -61 78 -2 0 -3 -9 -3 -19z
m125 -161 c11 0 27 5 35 10 21 13 39 -23 40 -78 0 -23 6 -58 14 -77 19 -44 94
-125 116 -125 14 0 18 -8 18 -35 0 -32 -2 -34 -24 -29 -17 5 -46 -7 -106 -41
-79 -44 -178 -74 -405 -120 -36 -7 -34 -12 -52 97 -6 32 -17 71 -25 87 -18 34
-17 35 64 74 47 22 64 40 117 114 34 49 75 111 90 140 l28 52 35 -34 c20 -19
45 -35 55 -35z m681 -503 c4 -4 15 -7 24 -7 31 0 102 -42 147 -86 47 -47 93
-132 93 -174 0 -14 4 -31 9 -38 12 -20 -7 -118 -34 -179 -14 -29 -44 -72 -68
-96 -38 -38 -58 -51 -137 -86 -48 -22 -150 -20 -221 4 -79 26 -129 63 -170
122 -91 132 -86 299 13 426 24 29 29 45 26 72 -5 40 -5 40 28 19 23 -16 27
-16 62 0 65 29 208 44 228 23z m-887 -108 c26 -19 33 -20 85 -9 30 6 60 9 65
6 5 -4 -19 -68 -55 -144 -68 -143 -108 -196 -147 -190 -20 3 -24 15 -44 138
-28 172 -29 207 -5 213 40 11 74 6 101 -14z"/>
<path d="M2495 1336 c-43 -19 -69 -51 -62 -76 4 -16 2 -20 -9 -16 -8 3 -21 9
-29 12 -23 9 -89 -65 -109 -122 -51 -151 22 -322 169 -394 70 -35 198 -36 267
-2 63 31 126 96 157 162 37 78 36 193 -1 265 -33 65 -96 127 -156 157 -58 28
-180 36 -227 14z m191 -43 c70 -24 147 -103 168 -173 33 -111 10 -206 -69
-286 -111 -111 -285 -112 -392 -2 -65 68 -78 100 -78 198 0 87 11 120 56 178
l17 23 93 -121 c72 -94 97 -120 116 -120 15 0 27 8 34 24 10 22 3 35 -81 145
-51 67 -91 123 -89 125 2 2 20 9 39 14 54 16 132 14 186 -5z"/>
<path d="M684 1465 c-210 -29 -391 -56 -403 -60 -42 -13 -81 -58 -180 -205
l-101 -149 29 -20 28 -20 92 138 c133 200 116 188 321 217 95 14 174 23 174
22 1 -2 10 -15 19 -30 9 -15 17 -29 17 -32 0 -2 -21 -7 -47 -10 -85 -12 -103
-17 -103 -32 0 -8 -10 -14 -26 -14 -22 0 -25 -3 -20 -22 3 -13 6 -31 6 -42 0
-14 5 -17 25 -12 19 5 25 2 25 -10 0 -13 7 -15 38 -11 20 4 78 12 127 18 l90
12 230 -83 c214 -78 275 -106 250 -116 -5 -3 -129 -80 -275 -173 -271 -172
-291 -189 -260 -227 7 -7 21 -14 32 -14 19 0 507 300 551 339 18 15 21 13 57
-29 l39 -45 -13 40 c-8 22 -29 143 -47 268 l-34 228 -123 64 c-68 36 -127 65
-131 64 -3 -1 -178 -25 -387 -54z m495 -41 c47 -25 92 -52 99 -59 14 -13 62
-290 62 -355 0 -32 -4 -37 -42 -53 l-42 -17 28 29 c33 34 30 71 -7 95 -12 8
-123 51 -247 96 -214 79 -227 82 -285 76 -200 -21 -197 -21 -193 0 3 19 26 29
91 39 25 4 43 14 54 32 16 24 16 27 -5 66 -12 22 -20 42 -19 44 7 6 329 51
376 52 35 1 63 -9 130 -45z"/>
<path d="M740 1025 c0 -8 -7 -15 -15 -15 -8 0 -15 5 -15 10 0 6 -9 10 -21 10
-15 0 -19 -4 -15 -16 5 -14 1 -15 -28 -10 -29 6 -34 3 -39 -15 -4 -16 -11 -19
-26 -14 -16 5 -23 1 -31 -19 -7 -19 -16 -25 -32 -23 -17 1 -22 -3 -20 -16 2
-11 -6 -21 -23 -27 -14 -5 -25 -16 -24 -22 3 -27 -2 -36 -21 -41 -17 -4 -19
-11 -14 -31 4 -19 2 -26 -9 -26 -8 0 -17 -7 -21 -15 -3 -8 -1 -15 4 -15 16 0
11 -30 -5 -36 -17 -7 -21 -34 -5 -34 6 0 10 -9 10 -20 0 -11 -4 -20 -10 -20
-5 0 -10 -7 -10 -15 0 -8 5 -15 10 -15 7 0 8 -13 5 -34 -5 -25 -3 -35 9 -39
12 -5 15 -14 10 -32 -5 -19 -2 -25 10 -25 9 0 16 -6 17 -12 1 -7 2 -22 3 -33
0 -11 6 -20 13 -20 16 0 28 -14 28 -33 0 -10 8 -17 20 -17 13 0 21 -8 23 -23
3 -18 8 -23 23 -19 18 5 33 -7 34 -28 0 -5 15 -9 33 -7 22 1 32 -2 32 -12 0
-8 7 -16 15 -20 8 -3 15 -1 15 4 0 16 30 11 36 -5 7 -17 34 -21 34 -5 0 6 7
10 15 10 8 0 15 -4 15 -10 0 -15 30 -12 47 6 15 14 17 14 25 0 5 -8 15 -13 23
-10 8 4 12 10 9 15 -3 5 3 12 12 16 10 4 19 2 22 -5 5 -15 32 -4 32 13 0 20
21 30 30 15 10 -17 30 -4 30 20 0 23 20 37 30 21 5 -9 10 -8 19 3 9 10 9 16 1
21 -8 5 -8 11 1 21 8 10 15 11 24 4 18 -15 27 3 19 36 -6 24 -5 26 15 21 24
-6 38 10 22 26 -18 18 -13 40 8 34 13 -3 21 1 24 14 3 12 0 19 -10 19 -8 0
-13 7 -11 18 2 10 11 16 21 14 11 -2 17 4 17 18 0 11 -7 20 -15 20 -8 0 -15 7
-15 15 0 8 7 15 15 15 9 0 15 9 15 21 0 15 -5 19 -15 15 -10 -4 -15 1 -15 14
0 11 5 20 10 20 6 0 10 9 10 20 0 12 -5 17 -14 14 -7 -3 -16 1 -19 10 -3 8 1
17 10 20 9 4 13 9 10 12 -3 3 -29 -10 -58 -30 l-53 -35 0 -78 c-1 -67 -5 -86
-31 -131 -54 -100 -133 -146 -245 -147 -65 0 -82 4 -129 30 -105 58 -158 154
-149 269 12 147 130 255 278 256 65 0 157 -31 175 -59 4 -8 18 -5 43 10 51 31
55 35 46 51 -5 7 -9 19 -9 27 0 16 -25 28 -25 12 0 -6 -7 -8 -16 -4 -9 3 -14
13 -11 24 5 19 -18 35 -28 19 -11 -18 -35 -10 -35 10 0 11 -7 20 -15 20 -8 0
-15 -5 -15 -11 0 -6 -8 -9 -17 -7 -10 2 -18 10 -18 18 0 8 -8 16 -17 18 -11 2
-18 -3 -18 -12 0 -9 -7 -16 -15 -16 -8 0 -15 7 -15 15 0 8 -9 15 -20 15 -11 0
-20 -7 -20 -15z m121 -60 c57 -16 109 -42 109 -55 0 -15 -12 -12 -74 16 -97
44 -210 33 -302 -29 -206 -138 -185 -437 39 -555 45 -23 64 -27 137 -27 73 0
92 4 135 27 62 32 130 104 156 164 11 25 23 76 26 114 3 39 9 70 14 70 29 0
19 -139 -15 -203 -40 -75 -53 -90 -103 -129 -99 -75 -225 -91 -348 -45 -162
61 -250 257 -193 430 56 171 243 270 419 222z"/>
</g>
</svg>
